<svg width="14" height="13" viewBox="0 0 14 13" fill="none" xmlns="http://www.w3.org/2000/svg">
<path d="M13.0356 7.19641V1.1607C13.0356 1.09783 13.0127 1.04342 12.9667 0.997472C12.9208 0.951527 12.8664 0.928555 12.8035 0.928555H1.19636C1.13349 0.928555 1.07908 0.951527 1.03313 0.997472C0.987188 1.04342 0.964216 1.09783 0.964216 1.1607V7.19641C0.964216 7.25928 0.987188 7.31369 1.03313 7.35964C1.07908 7.40558 1.13349 7.42855 1.19636 7.42855H12.8035C12.8664 7.42855 12.9208 7.40558 12.9667 7.35964C13.0127 7.31369 13.0356 7.25928 13.0356 7.19641ZM13.9642 1.1607V9.05355C13.9642 9.37275 13.8506 9.646 13.6233 9.87331C13.3959 10.1006 13.1227 10.2143 12.8035 10.2143H8.85707C8.85707 10.3932 8.89576 10.5806 8.97314 10.7765C9.05053 10.9724 9.12791 11.144 9.20529 11.2916C9.28267 11.4391 9.32136 11.5443 9.32136 11.6071C9.32136 11.7329 9.27541 11.8417 9.18352 11.9336C9.09163 12.0255 8.98282 12.0714 8.85707 12.0714H5.14279C5.01704 12.0714 4.90823 12.0255 4.81634 11.9336C4.72445 11.8417 4.6785 11.7329 4.6785 11.6071C4.6785 11.5394 4.71719 11.433 4.79457 11.2879C4.87195 11.1428 4.94934 10.9736 5.02672 10.7801C5.1041 10.5867 5.14279 10.398 5.14279 10.2143H1.19636C0.877162 10.2143 0.603911 10.1006 0.376604 9.87331C0.149298 9.646 0.0356445 9.37275 0.0356445 9.05355V1.1607C0.0356445 0.8415 0.149298 0.56825 0.376604 0.340942C0.603911 0.113636 0.877162 -1.71661e-05 1.19636 -1.71661e-05H12.8035C13.1227 -1.71661e-05 13.3959 0.113636 13.6233 0.340942C13.8506 0.56825 13.9642 0.8415 13.9642 1.1607Z" fill="white"/>
</svg>
