<svg width="26" height="15" viewBox="0 0 26 15" fill="none" xmlns="http://www.w3.org/2000/svg">
<path fill-rule="evenodd" clip-rule="evenodd" d="M12.7387 8.58867C11.5379 8.58867 8.58888 8.59233 8.58888 8.59233V5.77239H15.9607C16.4741 9.18452 14.9254 14.3027 8.58888 14.3027C4.34964 14.3027 0.913086 11.1148 0.913086 7.18236C0.913086 3.24988 4.34964 0.0620117 8.58888 0.0620117C10.578 0.0620117 12.3904 0.763895 13.7541 1.91528C12.6974 2.84097 12.3586 3.19385 12.0708 3.49368C11.9211 3.64964 11.7851 3.79125 11.5691 3.99167C10.7803 3.38658 9.92036 2.95245 8.58888 2.95245C6.07053 2.95245 4.105 4.84625 4.105 7.18236C4.105 9.51847 6.07053 11.4123 8.58888 11.4123C11.0774 11.4123 12.0884 10.4168 12.7387 8.58867ZM22.4212 3.44518V5.91262H25.0812V7.67509H22.4212V10.213H20.5213V7.67509H17.7854V5.91262H20.5213V3.44518H22.4212Z" fill="black"/>
</svg>
