<svg width="40" height="40" viewBox="0 0 40 40" fill="none" xmlns="http://www.w3.org/2000/svg">
<g clip-path="url(#clip0_4_964)">
<path d="M34.3428 40H5.65724C2.53299 40 0 37.467 0 34.3428V5.65724C0 2.53299 2.53299 0 5.65724 0H34.3428C37.467 0 40 2.53299 40 5.65724V34.3428C40 37.467 37.467 40 34.3428 40Z" fill="black"/>
<path d="M18.0962 10.9673H12.9258V29.2753H18.0962V10.9673Z" fill="#F6F6F6"/>
<path d="M27.0742 14.2143C27.0742 16.142 25.5121 17.7041 23.5845 17.7041C21.6569 17.7041 20.0947 16.142 20.0947 14.2143C20.0947 12.2867 21.6569 10.7246 23.5845 10.7246C25.5121 10.7246 27.0742 12.2867 27.0742 14.2143Z" fill="#3596A0"/>
</g>
<defs>
<clipPath id="clip0_4_964">
<rect width="40" height="40" fill="white"/>
</clipPath>
</defs>
</svg>
