<svg width="13" height="12" viewBox="0 0 13 12" fill="none" xmlns="http://www.w3.org/2000/svg">
<path d="M3.32694 6.02573C2.96905 5.24225 2.79011 4.34511 2.79011 3.33432H0.932966V4.03075C0.932966 4.40799 1.16148 4.79973 1.61851 5.20598C2.07554 5.61223 2.64502 5.88548 3.32694 6.02573ZM11.1473 4.03075V3.33432H9.29011C9.29011 4.34511 9.11117 5.24225 8.75328 6.02573C9.4352 5.88548 10.0047 5.61223 10.4617 5.20598C10.9187 4.79973 11.1473 4.40799 11.1473 4.03075ZM12.0758 3.10218V4.03075C12.0758 4.37413 11.9755 4.71993 11.7748 5.06814C11.5741 5.41636 11.3032 5.73072 10.9623 6.01122C10.6213 6.29173 10.203 6.5275 9.70724 6.71853C9.21152 6.90957 8.69041 7.01717 8.1439 7.04136C7.94078 7.30252 7.71105 7.53224 7.45473 7.73053C7.27095 7.89496 7.144 8.07028 7.07387 8.25648C7.00374 8.44268 6.96868 8.6591 6.96868 8.90575C6.96868 9.16691 7.04243 9.38697 7.18994 9.56591C7.33745 9.74485 7.57322 9.83432 7.89725 9.83432C8.25997 9.83432 8.5828 9.94435 8.86572 10.1644C9.14865 10.3845 9.29011 10.6613 9.29011 10.995V11.4593C9.29011 11.527 9.26834 11.5827 9.22482 11.6262C9.18129 11.6697 9.12567 11.6915 9.05797 11.6915H3.02225C2.95454 11.6915 2.89893 11.6697 2.8554 11.6262C2.81187 11.5827 2.79011 11.527 2.79011 11.4593V10.995C2.79011 10.6613 2.93157 10.3845 3.21449 10.1644C3.49742 9.94435 3.82024 9.83432 4.18297 9.83432C4.507 9.83432 4.74277 9.74485 4.89028 9.56591C5.03778 9.38697 5.11154 9.16691 5.11154 8.90575C5.11154 8.6591 5.07647 8.44268 5.00635 8.25648C4.93622 8.07028 4.80927 7.89496 4.62549 7.73053C4.36916 7.53224 4.13944 7.30252 3.93631 7.04136C3.38981 7.01717 2.8687 6.90957 2.37298 6.71853C1.87726 6.5275 1.45891 6.29173 1.11795 6.01122C0.776995 5.73072 0.506162 5.41636 0.305455 5.06814C0.104748 4.71993 0.00439453 4.37413 0.00439453 4.03075V3.10218C0.00439453 2.90873 0.0721029 2.7443 0.20752 2.60888C0.342936 2.47346 0.507371 2.40575 0.700823 2.40575H2.79011V1.70932C2.79011 1.39013 2.90376 1.11688 3.13107 0.88957C3.35838 0.662264 3.63163 0.548611 3.95082 0.548611H8.12939C8.44859 0.548611 8.72184 0.662264 8.94915 0.88957C9.17646 1.11688 9.29011 1.39013 9.29011 1.70932V2.40575H11.3794C11.5728 2.40575 11.7373 2.47346 11.8727 2.60888C12.0081 2.7443 12.0758 2.90873 12.0758 3.10218Z" fill="#555555"/>
</svg>
