<svg width="14" height="13" viewBox="0 0 14 13" fill="none" xmlns="http://www.w3.org/2000/svg">
<path d="M6.07143 12.0714H12.5714V7.42857H9.55357C9.36012 7.42857 9.19568 7.36086 9.06027 7.22545C8.92485 7.09003 8.85714 6.9256 8.85714 6.73214V3.71429H6.07143V12.0714ZM7.92857 1.625V1.16071C7.92857 1.09784 7.9056 1.04343 7.85965 0.997489C7.81371 0.951544 7.7593 0.928572 7.69643 0.928572H2.58929C2.52641 0.928572 2.47201 0.951544 2.42606 0.997489C2.38012 1.04343 2.35714 1.09784 2.35714 1.16071V1.625C2.35714 1.68787 2.38012 1.74228 2.42606 1.78823C2.47201 1.83417 2.52641 1.85714 2.58929 1.85714H7.69643C7.7593 1.85714 7.81371 1.83417 7.85965 1.78823C7.9056 1.74228 7.92857 1.68787 7.92857 1.625ZM9.78571 6.5H11.9548L9.78571 4.33092V6.5ZM13.5 7.42857V12.3036C13.5 12.497 13.4323 12.6615 13.2969 12.7969C13.1615 12.9323 12.997 13 12.8036 13H5.83929C5.64583 13 5.4814 12.9323 5.34598 12.7969C5.21057 12.6615 5.14286 12.497 5.14286 12.3036V11.1429H1.19643C1.00298 11.1429 0.838542 11.0751 0.703125 10.9397C0.567708 10.8043 0.5 10.6399 0.5 10.4464V0.696429C0.5 0.502976 0.567708 0.338542 0.703125 0.203125C0.838542 0.067709 1.00298 0 1.19643 0H9.08929C9.28274 0 9.44717 0.067709 9.58259 0.203125C9.71801 0.338542 9.78571 0.502976 9.78571 0.696429V3.07589C9.88728 3.13877 9.97433 3.20647 10.0469 3.27902L13.0067 6.23884C13.1421 6.37426 13.2582 6.55804 13.3549 6.79018C13.4516 7.02232 13.5 7.23512 13.5 7.42857Z" fill="#555555"/>
</svg>
