<svg width="14" height="13" viewBox="0 0 14 13" fill="none" xmlns="http://www.w3.org/2000/svg">
<path d="M4.90504 1.625L4.90504 0.232142C4.90504 0.164434 4.9268 0.108816 4.97033 0.0652894C5.01385 0.0217626 5.06947 -7.3702e-07 5.13718 -7.31101e-07L6.99432 -5.68744e-07C7.06203 -5.62825e-07 7.11765 0.0217628 7.16118 0.0652896C7.2047 0.108816 7.22647 0.164434 7.22647 0.232142L7.22647 1.625C7.22647 1.69271 7.2047 1.74833 7.16118 1.79185C7.11765 1.83538 7.06203 1.85714 6.99432 1.85714L5.13718 1.85714C5.06947 1.85714 5.01385 1.83538 4.97033 1.79185C4.9268 1.74833 4.90504 1.69271 4.90504 1.625ZM8.38718 2.55357C8.38718 2.49554 8.41136 2.4375 8.45972 2.37946L10.7739 0.0652899C10.8223 0.0217632 10.8779 -2.29233e-07 10.9408 -2.23737e-07C10.9988 -2.18663e-07 11.0544 0.0217632 11.1076 0.06529L13.429 2.38672C13.5016 2.4641 13.5185 2.54874 13.4798 2.64062C13.4411 2.73735 13.3686 2.78571 13.2622 2.78571L11.8693 2.78571L11.8693 12.7679C11.8693 12.8356 11.8476 12.8912 11.804 12.9347C11.7605 12.9782 11.7049 13 11.6372 13L10.2443 13C10.1766 13 10.121 12.9782 10.0775 12.9347C10.0339 12.8912 10.0122 12.8356 10.0122 12.7679L10.0122 2.78571L8.61932 2.78571C8.55161 2.78571 8.496 2.76395 8.45247 2.72042C8.40894 2.6769 8.38718 2.62128 8.38718 2.55357ZM3.51218 5.33928L3.51218 3.94643C3.51218 3.87872 3.53394 3.8231 3.57747 3.77957C3.621 3.73605 3.67661 3.71428 3.74432 3.71428L6.99432 3.71429C7.06203 3.71429 7.11765 3.73605 7.16118 3.77958C7.2047 3.8231 7.22647 3.87872 7.22647 3.94643L7.22647 5.33928C7.22647 5.40699 7.2047 5.46261 7.16118 5.50614C7.11765 5.54966 7.06203 5.57143 6.99432 5.57143L3.74432 5.57143C3.67661 5.57143 3.621 5.54966 3.57747 5.50614C3.53394 5.46261 3.51218 5.40699 3.51218 5.33928ZM2.11932 9.05357L2.11932 7.66071C2.11932 7.593 2.14109 7.53739 2.18461 7.49386C2.22814 7.45033 2.28376 7.42857 2.35147 7.42857L6.99432 7.42857C7.06203 7.42857 7.11765 7.45033 7.16118 7.49386C7.2047 7.53739 7.22647 7.59301 7.22647 7.66071L7.22646 9.05357C7.22646 9.12128 7.2047 9.1769 7.16117 9.22042C7.11765 9.26395 7.06203 9.28571 6.99432 9.28571L2.35147 9.28571C2.28376 9.28571 2.22814 9.26395 2.18461 9.22042C2.14109 9.1769 2.11932 9.12128 2.11932 9.05357ZM0.726465 12.7679L0.726465 11.375C0.726465 11.3073 0.748228 11.2517 0.791755 11.2081C0.835282 11.1646 0.8909 11.1429 0.958608 11.1429L6.99432 11.1429C7.06203 11.1429 7.11765 11.1646 7.16117 11.2081C7.2047 11.2517 7.22646 11.3073 7.22646 11.375L7.22646 12.7679C7.22646 12.8356 7.2047 12.8912 7.16117 12.9347C7.11765 12.9782 7.06203 13 6.99432 13L0.958607 13C0.890899 13 0.835282 12.9782 0.791755 12.9347C0.748228 12.8912 0.726465 12.8356 0.726465 12.7679Z" fill="#555555"/>
</svg>
