<svg width="14" height="12" viewBox="0 0 14 12" fill="none" xmlns="http://www.w3.org/2000/svg">
<path d="M5.14286 1.85717H8.85714V0.928597H5.14286V1.85717ZM13.5 6.50003V9.98217C13.5 10.3014 13.3863 10.5746 13.159 10.8019C12.9317 11.0292 12.6585 11.1429 12.3393 11.1429H1.66071C1.34152 11.1429 1.06827 11.0292 0.84096 10.8019C0.613653 10.5746 0.5 10.3014 0.5 9.98217V6.50003H5.375V7.66074C5.375 7.78648 5.42094 7.8953 5.51283 7.98719C5.60472 8.07908 5.71354 8.12503 5.83929 8.12503H8.16071C8.28646 8.12503 8.39528 8.07908 8.48716 7.98719C8.57905 7.8953 8.625 7.78648 8.625 7.66074V6.50003H13.5ZM7.92857 6.50003V7.4286H6.07143V6.50003H7.92857ZM13.5 3.01788V5.8036H0.5V3.01788C0.5 2.69869 0.613653 2.42544 0.84096 2.19813C1.06827 1.97082 1.34152 1.85717 1.66071 1.85717H4.21429V0.696455C4.21429 0.503003 4.28199 0.338568 4.41741 0.203152C4.55283 0.0677347 4.71726 2.67029e-05 4.91071 2.67029e-05H9.08929C9.28274 2.67029e-05 9.44717 0.0677347 9.58259 0.203152C9.71801 0.338568 9.78571 0.503003 9.78571 0.696455V1.85717H12.3393C12.6585 1.85717 12.9317 1.97082 13.159 2.19813C13.3863 2.42544 13.5 2.69869 13.5 3.01788Z" fill="#555555"/>
</svg>
