<svg width="18" height="12" viewBox="0 0 18 12" fill="none" xmlns="http://www.w3.org/2000/svg">
<path d="M13.5122 5.26473L13.6428 7.55714C13.6622 7.89084 13.4639 8.20037 13.048 8.48571C12.632 8.77105 12.0638 8.99715 11.3432 9.164C10.6225 9.33085 9.84148 9.41428 8.99996 9.41428C8.15845 9.41428 7.37738 9.33085 6.65677 9.164C5.93616 8.99715 5.3679 8.77105 4.95197 8.48571C4.53605 8.20037 4.33776 7.89084 4.35711 7.55714L4.48769 5.26473L8.65175 6.57779C8.75815 6.61164 8.87422 6.62857 8.99996 6.62857C9.12571 6.62857 9.24178 6.61164 9.34818 6.57779L13.5122 5.26473ZM17.1975 2.68939C17.3039 2.72808 17.3571 2.80305 17.3571 2.91428C17.3571 3.02552 17.3039 3.10048 17.1975 3.13917L9.07251 5.69274C9.05316 5.69758 9.02898 5.7 8.99996 5.7C8.97095 5.7 8.94677 5.69758 8.92742 5.69274L4.19751 4.19832C3.98955 4.36276 3.81786 4.63238 3.68244 5.00719C3.54703 5.38201 3.46481 5.81365 3.43579 6.30212C3.74048 6.47622 3.89282 6.7398 3.89282 7.09285C3.89282 7.42656 3.75257 7.6853 3.47206 7.86908L3.89282 11.0103C3.90249 11.078 3.88315 11.1384 3.83479 11.1916C3.79126 11.2448 3.73322 11.2714 3.66068 11.2714H2.26782C2.19528 11.2714 2.13724 11.2448 2.09372 11.1916C2.04535 11.1384 2.02601 11.078 2.03568 11.0103L2.45644 7.86908C2.17593 7.6853 2.03568 7.42656 2.03568 7.09285C2.03568 6.7398 2.19286 6.47139 2.50722 6.28761C2.56042 5.28649 2.7974 4.4885 3.21816 3.89363L0.80242 3.13917C0.696022 3.10048 0.642822 3.02552 0.642822 2.91428C0.642822 2.80305 0.696022 2.72808 0.80242 2.68939L8.92742 0.135821C8.94677 0.130984 8.97095 0.128567 8.99996 0.128567C9.02898 0.128567 9.05316 0.130984 9.07251 0.135821L17.1975 2.68939Z" fill="#555555"/>
</svg>
