<svg width="10" height="11" viewBox="0 0 10 11" fill="none" xmlns="http://www.w3.org/2000/svg">
<path d="M9.64009 8.86203C9.64009 9.39044 9.47936 9.80766 9.15792 10.1137C8.83647 10.4197 8.40934 10.5728 7.87652 10.5728H2.10365C1.57084 10.5728 1.14371 10.4197 0.822261 10.1137C0.500812 9.80766 0.340088 9.39044 0.340088 8.86203C0.340088 8.62865 0.347794 8.40077 0.363206 8.1784C0.378618 7.95603 0.409442 7.71604 0.455677 7.45844C0.501913 7.20084 0.560258 6.96196 0.630713 6.74179C0.701167 6.52162 0.795841 6.30695 0.914733 6.09779C1.03362 5.88863 1.17013 5.71029 1.32425 5.56278C1.47837 5.41526 1.66661 5.29747 1.88899 5.2094C2.11136 5.12133 2.35685 5.0773 2.62546 5.0773C2.66509 5.0773 2.75756 5.12464 2.90287 5.21931C3.04818 5.31398 3.21221 5.41966 3.39495 5.53636C3.57769 5.65305 3.81548 5.75873 4.10831 5.8534C4.40113 5.94807 4.69506 5.99541 4.99009 5.99541C5.28512 5.99541 5.57904 5.94807 5.87187 5.8534C6.1647 5.75873 6.40248 5.65305 6.58522 5.53636C6.76796 5.41966 6.93199 5.31398 7.0773 5.21931C7.22262 5.12464 7.31509 5.0773 7.35472 5.0773C7.62333 5.0773 7.86882 5.12133 8.09119 5.2094C8.31356 5.29747 8.50181 5.41526 8.65593 5.56278C8.81005 5.71029 8.94655 5.88863 9.06544 6.09779C9.18434 6.30695 9.27901 6.52162 9.34946 6.74179C9.41992 6.96196 9.47826 7.20084 9.5245 7.45844C9.57073 7.71604 9.60156 7.95603 9.61697 8.1784C9.63238 8.40077 9.64009 8.62865 9.64009 8.86203ZM6.78338 1.17037C6.78338 1.17037 6.90722 1.29422 7.15491 1.54191C7.40261 1.7896 7.52645 2.26352 7.52645 2.96366C7.52645 3.66381 7.27876 4.26157 6.78338 4.75695C6.28799 5.25234 5.69023 5.50003 4.99009 5.50003C4.28995 5.50003 3.69218 5.25234 3.1968 4.75695C2.70142 4.26157 2.45372 3.66381 2.45372 2.96366C2.45372 2.26352 2.70142 1.66576 3.1968 1.17037C3.69218 0.674992 4.28995 0.427299 4.99009 0.427299C5.69023 0.427299 6.28799 0.674992 6.78338 1.17037Z" fill="#555555"/>
</svg>
