<svg width="25" height="20" viewBox="0 0 25 20" fill="none" xmlns="http://www.w3.org/2000/svg">
<path d="M24.7411 2.77251C23.8531 3.16244 22.897 3.42613 21.8941 3.54395C22.9183 2.93802 23.7041 1.97723 24.0744 0.832701C23.1155 1.39374 22.0558 1.8019 20.9238 2.02071C20.0217 1.06834 18.7322 0.473633 17.3052 0.473633C14.5689 0.473633 12.3489 2.66872 12.3489 5.37575C12.3489 5.76007 12.3914 6.13316 12.4765 6.49223C8.35574 6.28745 4.70305 4.33782 2.2561 1.3685C1.82912 2.09505 1.58514 2.93802 1.58514 3.83569C1.58514 5.53565 2.46036 7.03645 3.79094 7.91588C2.97954 7.89204 2.21354 7.66902 1.544 7.30434V7.36466C1.544 9.74068 3.25332 11.7226 5.52295 12.1714C5.10732 12.2864 4.669 12.3439 4.21649 12.3439C3.89733 12.3439 3.58525 12.3145 3.28311 12.257C3.91435 14.2038 5.74424 15.6218 7.91458 15.6597C6.21803 16.9753 4.0789 17.7594 1.75678 17.7594C1.35675 17.7594 0.960987 17.737 0.57373 17.6921C2.76818 19.0807 5.37543 19.8928 8.17417 19.8928C17.2953 19.8928 22.2814 12.4239 22.2814 5.94521C22.2814 5.73202 22.2771 5.51882 22.2686 5.30983C23.2374 4.61835 24.0786 3.75574 24.7411 2.77251Z" fill="black"/>
</svg>
