<svg width="21" height="17" viewBox="0 0 21 17" fill="none" xmlns="http://www.w3.org/2000/svg">
<path d="M18.6797 4.71729C18.7188 4.87354 18.7188 5.06885 18.7188 5.2251C18.7188 10.6548 14.5781 16.9048 7.03906 16.9048C4.73438 16.9048 2.54688 16.2407 0.75 15.0688C1.0625 15.1079 1.41406 15.1079 1.72656 15.1079C3.64062 15.1079 5.4375 14.4829 6.84375 13.3501C5.00781 13.311 3.52344 12.1392 3.01562 10.4985C3.25 10.5376 3.52344 10.5767 3.75781 10.5767C4.14844 10.5767 4.5 10.5376 4.85156 10.4595C2.97656 10.0688 1.57031 8.42822 1.57031 6.43604C1.57031 6.39697 1.57031 6.39697 1.57031 6.35791C2.11719 6.67041 2.74219 6.86572 3.40625 6.90479C2.3125 6.1626 1.57031 4.9126 1.57031 3.46729C1.57031 2.7251 1.80469 2.02197 2.15625 1.39697C4.14844 3.89697 7.19531 5.5376 10.5938 5.69385C10.5156 5.38135 10.4766 5.06885 10.4766 4.75635C10.4766 2.49072 12.3125 0.654785 14.5781 0.654785C15.7891 0.654785 16.8438 1.1626 17.5859 1.94385C18.5234 1.7876 19.4219 1.43604 20.2031 0.967285C19.8906 1.90479 19.2266 2.7251 18.4062 3.23291C19.2266 3.11572 20.0078 2.92041 20.75 2.56885C20.2031 3.38916 19.5 4.13135 18.6797 4.71729Z" fill="#555555"/>
</svg>
