<svg width="21" height="21" viewBox="0 0 21 21" fill="none" xmlns="http://www.w3.org/2000/svg">
<path d="M20.5 3.86572V5.38916H17.4141V8.4751H15.8906V5.38916H12.8047V3.86572H15.8906V0.779785H17.4141V3.86572H20.5ZM12.7266 15.8188C12.7266 17.186 12.0625 18.3188 11.0469 19.2173C9.64062 20.3892 7.76562 20.7798 6.00781 20.7798C3.74219 20.7798 0.5 19.8032 0.5 17.0298C0.5 16.4829 0.695312 15.897 0.929688 15.3892C2.02344 13.2407 5.34375 12.6938 7.49219 12.6157C7.10156 12.1079 6.75 11.522 6.75 10.8579C6.75 10.4282 6.86719 10.1938 6.98438 9.80322C6.71094 9.84229 6.4375 9.88135 6.16406 9.88135C3.82031 9.88135 1.82812 8.1626 1.82812 5.74072C1.82812 3.43604 3.58594 1.48291 5.77344 1.01416C6.51562 0.85791 7.25781 0.779785 8 0.779785H13.2734L11.6328 1.71729H10.0312C11.2031 2.45947 11.8281 3.94385 11.8281 5.27197C11.8281 8.4751 9.13281 8.70947 9.13281 10.272C9.13281 11.8345 12.7266 12.4595 12.7266 15.8188ZM9.60156 6.48291C9.60156 4.64697 8.58594 1.63916 6.35938 1.63916C4.79688 1.63916 4.05469 3.04541 4.05469 4.45166C4.05469 6.2876 5.22656 9.13916 7.375 9.13916C9.01562 9.13916 9.60156 7.96729 9.60156 6.48291ZM11.0469 16.8345C11.0469 15.1548 9.44531 14.2173 8.23438 13.3579C8.03906 13.3579 7.84375 13.3579 7.60938 13.3579C5.65625 13.3579 2.72656 13.9829 2.72656 16.4829C2.72656 18.7876 5.30469 19.686 7.25781 19.686C9.01562 19.686 11.0469 18.9438 11.0469 16.8345Z" fill="#555555"/>
</svg>
