<svg width="16" height="20" viewBox="0 0 16 20" fill="none" xmlns="http://www.w3.org/2000/svg">
<path d="M15.9453 7.08432C15.9453 11.6156 13.4453 14.9359 9.77344 14.9359C8.52344 14.9359 7.35156 14.2718 6.96094 13.5296C6.29688 16.1468 6.17969 16.6546 6.17969 16.6546C5.94531 17.514 5.4375 18.4124 5.00781 19.0765C3.79688 19.9749 3.67969 18.6078 3.67969 18.6078C3.64062 17.8265 3.64062 16.8499 3.875 15.9906C3.875 15.9906 4.07031 15.0531 5.32031 9.77963C4.96875 9.03745 4.96875 7.9437 4.96875 7.9437C4.96875 6.26401 5.94531 4.97495 7.15625 4.97495C8.21094 4.97495 8.71875 5.79526 8.71875 6.73276C8.71875 7.74838 8.05469 9.31088 7.70312 10.7562C7.42969 11.9671 8.32812 12.9828 9.5 12.9828C11.6875 12.9828 13.1328 10.1703 13.1328 6.88901C13.1328 4.38901 11.4531 2.51401 8.36719 2.51401C4.89062 2.51401 2.74219 5.09213 2.74219 7.98276C2.74219 8.99838 3.05469 9.66245 3.52344 10.2484C3.71875 10.4828 3.75781 10.5609 3.67969 10.8734C3.60156 11.0687 3.48438 11.5765 3.44531 11.7718C3.36719 12.0843 3.13281 12.1624 2.85938 12.0843C1.29688 11.4203 0.515625 9.66245 0.515625 7.70932C0.515625 4.46713 3.25 0.560883 8.67969 0.560883C13.0547 0.560883 15.9453 3.72495 15.9453 7.08432Z" fill="#555555"/>
</svg>
