<svg width="13" height="15" viewBox="0 0 13 15" fill="none" xmlns="http://www.w3.org/2000/svg">
<path d="M12.1767 10.3832C12.3473 10.2126 12.6246 10.2134 12.7952 10.384C12.9658 10.5546 12.9658 10.8319 12.7952 11.0025C11.4329 12.3651 9.64356 13.0456 7.855 13.0456C7.82 13.0456 7.785 13.0413 7.75 13.0404V14.0415H9.0625C9.30395 14.0415 9.5 14.2376 9.5 14.479C9.5 14.7204 9.30395 14.9165 9.0625 14.9165H5.5625C5.32106 14.9165 5.125 14.7204 5.125 14.479C5.125 14.2376 5.32106 14.0415 5.5625 14.0415H6.875V12.9688C5.42524 12.7648 4.02688 12.1149 2.91481 11.0017C1.59793 9.68482 0.871681 7.92963 0.871681 6.0615C0.871681 4.19338 1.59711 2.439 2.91481 1.12213C3.08543 0.951504 3.3627 0.951504 3.53332 1.12213C3.70395 1.29275 3.70395 1.57002 3.53332 1.74064C2.38188 2.89236 1.74668 4.4269 1.74668 6.0615C1.74668 7.69611 2.38106 9.23064 3.53414 10.3832C5.91688 12.7667 9.79395 12.7648 12.1767 10.3832ZM7.855 0.916504C10.696 0.916504 13 3.21939 13 6.0615C13 8.90361 10.696 11.2065 7.855 11.2065C5.01399 11.2065 2.71 8.90252 2.71 6.0615C2.71 3.22049 5.01289 0.916504 7.855 0.916504ZM7.855 10.3315C10.2096 10.3315 12.125 8.41607 12.125 6.0615C12.125 3.70693 10.2096 1.7915 7.855 1.7915C5.50043 1.7915 3.585 3.70693 3.585 6.0615C3.585 8.41607 5.50043 10.3315 7.855 10.3315Z" fill="#555555"/>
</svg>
