<svg width="20" height="21" viewBox="0 0 20 21" fill="none" xmlns="http://www.w3.org/2000/svg">
<path d="M15.3125 0.779785H4.6875C2.10938 0.779785 0 2.88916 0 5.46729V16.0923C0 18.6704 2.10938 20.7798 4.6875 20.7798H15.3125C17.8906 20.7798 20 18.6704 20 16.0923V5.46729C20 2.88916 17.8906 0.779785 15.3125 0.779785ZM18.8281 16.0923C18.8281 18.0063 17.2266 19.6079 15.3125 19.6079H4.6875C2.77344 19.6079 1.17188 18.0063 1.17188 16.0923V9.02197H4.96094C4.60938 9.7251 4.41406 10.5063 4.41406 11.3657C4.41406 14.4517 6.91406 16.9517 10 16.9517C13.0859 16.9517 15.5859 14.4517 15.5859 11.3657C15.5859 10.5063 15.3906 9.7251 15.0391 9.02197H18.8281V16.0923ZM14.4141 11.3657C14.4141 13.7876 12.4219 15.7798 10 15.7798C7.57812 15.7798 5.58594 13.7876 5.58594 11.3657C5.58594 8.94385 7.57812 6.95166 10 6.95166C12.4219 6.95166 14.4141 8.94385 14.4141 11.3657ZM14.2969 7.8501C13.2812 6.6001 11.7188 5.77979 10 5.77979C8.28125 5.77979 6.71875 6.6001 5.70312 7.8501H1.17188V5.46729C1.17188 3.55322 2.77344 1.95166 4.6875 1.95166H15.3125C17.2266 1.95166 18.8281 3.55322 18.8281 5.46729V7.8501H14.2969ZM16.9922 3.98291V5.50635C16.9922 5.85791 16.7188 6.13135 16.3672 6.13135H14.7656C14.4141 6.13135 14.1016 5.85791 14.1016 5.50635V3.98291C14.1016 3.63135 14.4141 3.35791 14.7656 3.35791H16.3672C16.7188 3.35791 16.9922 3.63135 16.9922 3.98291Z" fill="#555555"/>
</svg>
