<svg width="18" height="19" viewBox="0 0 18 19" fill="none" xmlns="http://www.w3.org/2000/svg">
<path d="M16.5938 6.73291C15.5742 2.97119 12.5156 0.369629 9 0.369629C5.51953 0.369629 2.42578 2.97119 1.40625 6.73291C0.632812 6.83838 0 7.50635 0 8.31494V12.5337C0 13.2017 0.421875 13.7642 0.984375 14.0103C1.19531 15.8735 2.74219 17.3149 4.64062 17.3149H7.52344C7.73438 17.9126 8.29688 18.3696 9 18.3696H12.1641C13.043 18.3696 13.7812 17.6665 13.7812 16.7876C13.7812 15.9087 13.043 15.2056 12.1641 15.2056H9C8.29688 15.2056 7.73438 15.6274 7.52344 16.2603H4.64062C3.375 16.2603 2.28516 15.3462 2.03906 14.1509H3.16406V13.061H4.21875V7.7876H3.16406V6.73291H2.53125C3.51562 3.604 6.08203 1.42432 9 1.42432C11.918 1.42432 14.4844 3.56885 15.4688 6.73291H14.8359V7.7876H13.7812V13.061H14.8359V14.1509H16.418C17.2969 14.1509 18 13.4126 18 12.5337V8.31494C18 7.50635 17.3672 6.83838 16.5938 6.73291ZM9 16.2603H12.1641C12.4805 16.2603 12.6914 16.5063 12.6914 16.7876C12.6914 17.0688 12.4805 17.3149 12.1641 17.3149H9C8.71875 17.3149 8.47266 17.0688 8.47266 16.7876C8.47266 16.5063 8.71875 16.2603 9 16.2603ZM2.10938 13.061H1.58203C1.30078 13.061 1.05469 12.8501 1.05469 12.5337V8.31494C1.05469 8.03369 1.30078 7.7876 1.58203 7.7876H2.10938V13.061ZM16.9453 12.5337C16.9453 12.8501 16.6992 13.061 16.418 13.061H15.8906V7.7876H16.418C16.6992 7.7876 16.9453 8.03369 16.9453 8.31494V12.5337Z" fill="#004DDA"/>
</svg>
